<?xml version="1.0" standalone="no"?>
<!DOCTYPE svg PUBLIC "-//W3C//DTD SVG 20010904//EN"
 "http://www.w3.org/TR/2001/REC-SVG-20010904/DTD/svg10.dtd">
<svg version="1.0" xmlns="http://www.w3.org/2000/svg"
 width="512pt" height="512pt" viewBox="0 0 512 512"
 preserveAspectRatio="xMidYMid meet">

<g transform="translate(0,512) scale(0.100000,-0.100000)"
fill="#e0e1dd" stroke="none">
<path d="M553 5113 c-7 -2 -13 -10 -13 -18 0 -7 -27 -19 -64 -29 -85 -21 -121
-44 -235 -151 -103 -97 -161 -171 -181 -229 -7 -23 -21 -41 -36 -46 l-24 -10
0 -2315 0 -2315 302 2 302 3 8 35 c4 19 7 1008 7 2198 l0 2163 28 35 c41 55
119 86 229 92 91 4 91 4 140 -30 43 -30 50 -40 56 -79 4 -24 7 -1025 7 -2223
0 -1199 4 -2183 9 -2188 4 -4 152 -7 327 -6 l320 3 7 40 c4 22 7 1023 7 2224
0 1409 4 2188 10 2194 5 5 42 23 81 38 89 36 189 40 248 10 41 -21 122 -103
122 -123 0 -7 0 -980 0 -2163 0 -1182 3 -2167 6 -2188 l7 -37 322 0 323 0 6
32 c3 17 6 1003 6 2190 l0 2160 -26 44 c-15 25 -30 63 -35 85 -12 53 -75 185
-108 227 -128 162 -282 283 -423 331 -30 10 -53 24 -53 32 0 12 -44 14 -253
17 -241 2 -254 1 -259 -16 -3 -12 -21 -24 -46 -32 -23 -6 -67 -25 -97 -41 -30
-15 -79 -38 -109 -49 -51 -20 -56 -20 -102 -5 -26 9 -65 28 -85 42 -21 13 -65
33 -100 44 -44 14 -63 25 -67 39 -5 19 -13 20 -279 19 -150 0 -279 -3 -285 -6z"/>
<path d="M3476 5070 l-26 -50 0 -1290 c0 -954 -3 -1297 -11 -1313 -15 -28 -28
-37 -57 -37 -32 0 -82 -52 -82 -85 0 -14 -13 -52 -29 -83 -16 -32 -34 -82 -39
-112 -6 -30 -22 -75 -35 -100 -31 -56 -52 -139 -44 -172 10 -40 46 -49 161
-43 91 6 103 4 119 -13 16 -17 17 -85 19 -893 l3 -874 798 -3 797 -2 -2 312
-3 313 -472 5 c-328 3 -475 8 -483 16 -17 17 -15 1115 2 1126 16 9 11 9 288
11 262 2 265 3 302 95 20 51 23 77 26 263 l3 206 -27 22 c-26 20 -36 21 -294
21 -240 0 -270 2 -289 18 l-22 17 0 1034 c0 925 2 1036 16 1050 14 14 77 17
483 21 l467 5 3 293 2 292 -774 0 -774 0 -26 -50z"/>
</g>
</svg>
